<svg version="1.1" id="Layer_1" xmlns="http://www.w3.org/2000/svg" x="0" y="0" viewBox="0 0 2422.7 2422.9" xml:space="preserve"><style>.st0{fill:#3398c2}</style><path class="st0" d="M1211.9 0c662 1.3 1193.4 528 1210.4 1178.6 18 698.8-551.3 1259.9-1238.7 1244-642.7-14.6-1154-527.5-1182.3-1155C-30.2 572.2 526.1-.5 1211.9 0z"/><path d="M765.7 848.4c7.9-30.7 19.3-60.4 33.9-88.7 14.3-27.3 34.7-47.7 64.3-57.5 21.2-6.9 38.9-19.1 54.8-35.2 56.1-56.4 124.2-89.2 203.4-98 13-1.3 19.6-6.1 24.6-18.3 11.9-28.9 26.7-56.7 46.3-81.3 25.9-32.6 56.9-56.9 101.7-54.3 28.3 1.6 51.9 13.5 69.1 36.3 19.3 25.4 33.6 53.8 47.4 82.4 4.5 9.3 8.2 12.7 19.6 10.3 41.8-9.3 75.7 9 93.7 47.9 20.9 45.5 31 93.7 36 143 10.6 102.5 3.7 203.4-31 301.6-20.4 57.7-49 111.2-83.9 161.5-4.2 6.1-5.3 10.1.5 16.4 93.5 104.9 139.3 227.2 134 368.1v10.1c6.6.3 11.7-3.7 16.7-6.4 41.3-21.2 78.9-48.2 120.5-69.1 58.5-29.4 119.7-50 186.1-49.5 98.2.8 161.3 96.4 120.2 181.6-16.2 33.6-42.6 57.5-78.9 65.4-66.2 14.8-125 44.8-181.1 81.6-92.4 61.4-193.6 107-299.5 141.9-7.1 2.4-13.8 5.3-19.9 10.1-28.3 21.2-61.4 29.9-95.9 34.7-104.6 14.6-209.7 20.9-315.1 25.4-43.4 1.9-86.6-4-125-27-10.3-6.4-19.3-18.3-29.9-20.1-10.3-1.6-22 7.9-33.4 10.6-67.5 15.1-130.8 2.4-189.3-33.1-34.7-20.9-51.1-54-49.3-94.8.5-10.9-2.6-18.8-9-27.5-28.1-39.2-41.8-83.9-49.5-131.1-15.1-92.9 18-169.7 79.4-237 5.8-6.4 7.9-12.7 7.9-21.2 0-92.9 17.7-181.4 65.4-262.4 26.7-45.3 61.2-84.2 99.6-119.4 7.4-6.6 8.2-11.1 3.2-19.6-16.2-27-26.2-56.7-35-86.9-7.4-5.3-2.6-13.5-5.6-20.1-.5-5 0-10.1-1.6-15.1v-33.1c1.3-4.8 1.3-9.8 1.3-14.8 1.2-2.4.7-5.6 3.3-7.4z" fill="#fefefe"/><path d="M764.9 918.6c2.1 6.6-.5 14 3.4 20.4-1.1.8-1.1 6.1-2.6 2.4-2.9-7.1-5-15.1-5-22.8-.5-25.4-2.9-51.1 4.2-76.3.3 2.1.5 4.2 1.1 6.1-.3 2.4-.5 4.8-.8 6.9-2.4 4.5.3 9.8-2.1 14.3v34.7c1.8 4.5-.5 9.8 1.8 14.3z" fill="#3298c3"/><path class="st0" d="M1509 1596.4c0 24.4-5.6 48.2-8.7 72-2.6 20.9-.5 23.3 20.7 19.6 47.7-8.2 90.8-28.3 132.4-51.9 44.5-25.4 86.9-54.3 134.5-73.3 36.8-14.8 74.4-24.6 114.4-24.6 34.7 0 58.8 18.8 63 48.5 4 27.5-11.1 53.8-38.7 59.6-78.9 16.7-147 55.6-213.4 98.8-89 57.5-185.9 99-286.8 130.8-3.7 1.1-8.5 1.9-10.9 4.2-23.8 25.2-55.3 29.4-87.1 33.6-89.2 11.7-179 16.9-269 22.2-25.9 1.6-51.9 2.4-77.8-2.6-41.3-8.2-58.8-23.6-65.1-57.5-5.6-30.5 8.7-59.3 39.2-79.2 3.2-2.1 6.6-4.2 11.7-7.4-16.4-10.1-29.9-22-40.2-36.8-5-6.9-7.7-2.6-9.3 3.2-5 19.1-10.1 38.4-15.1 57.5-3.4 12.7-7.7 25.2-13 37.3-15.4 35.2-43.4 52.2-80.5 55.6-37.9 3.4-73.6-5-107.5-21.7-23.3-11.4-30.2-28.6-22.5-53.8 4-13.5 11.7-25.2 20.9-39.5-32 6.4-46.1-12.2-57.2-34.7-24.9-49.3-33.4-101.4-23.3-155.4 8.2-42.9 33.4-77.8 63.6-108 17.7-17.7 23-34.7 22.5-59.6-4-143.8 50.3-261.9 162.1-353.2 9.8-8.2 19.6-16.7 29.9-24.1 6.4-4.5 7.1-7.4 1.9-14-28.9-36.3-51.4-75.7-61.7-121.5-11.7-51.6 5.8-96.4 31.8-139.3 3.7-5.8 9.5-8.7 15.9-11.1 32.6-11.7 60.1-29.4 85-54.3 56.1-56.1 125.5-81.8 204.9-78.4 10.1.5 14.6-2.4 17.7-11.9 11.9-34.7 26.7-68.1 46.6-99 7.4-11.7 15.6-22.5 26.2-31.2 19.6-16.2 36.3-13.8 49.5 7.7 24.4 38.9 43.2 80.8 62.2 122.6 4.8 10.6 8.5 14.3 19.6 7.1 13-8.2 27.5-14 42.1-19.1 11.7-4 18.5-1.3 23.6 10.9 14.8 35.7 22.8 73.1 27.3 111.5 1.3 10.6 3.7 20.9 2.4 31.5-.8 23 .3 46.1.5 69.4 0 10.3-3.7 20.7-.5 31.2-2.4 63-19.1 122.6-43.4 180.3-22.8 54-55.9 101.9-89 149.9-13 18.5-12.7 18.8 4.2 33.9 82.6 74.4 128.2 167.9 143.5 277 .5 4.2.3 8.7.3 13.2-3.4 10.1.3 19.9.5 29.7.9 14.9-2.5 29.8.1 44.3z"/><path d="M1493.1 868.3c-3.2-2.6-2.4-6.4-2.4-9.8v-80.8c0-3.4-.8-7.1 2.4-9.8 3.5 33.4 3.7 67 0 100.4z" fill="#2b95c1"/><path d="M1509 1596.4c-5.3-20.4-1.1-41-2.4-61.4-.3-4.2-1.6-9 2.4-12.4 3.4 24.6 2.9 49.2 0 73.8z" fill="#2693bf"/><path class="st0" d="M762.8 869.6c.3-4.8-2.1-10.1 2.1-14.3 0 4.7.3 9.8-2.1 14.3zm2.1 49c-4-4.2-1.9-9.5-2.1-14.3 2.7 4.5 2.1 9.5 2.1 14.3z"/></svg>